<?xml version="1.0" encoding="UTF-8"?>
<!DOCTYPE svg PUBLIC "-//W3C//DTD SVG 1.1//EN" "http://www.w3.org/Graphics/SVG/1.1/DTD/svg11.dtd">
<!-- Creator: CorelDRAW X7 -->
<svg xmlns="http://www.w3.org/2000/svg" xml:space="preserve" width="105.226mm" height="67.2457mm" version="1.1" style="shape-rendering:geometricPrecision; text-rendering:geometricPrecision; image-rendering:optimizeQuality; fill-rule:evenodd; clip-rule:evenodd"
viewBox="0 0 11186 7149"
 xmlns:xlink="http://www.w3.org/1999/xlink">
 <defs>
  <style type="text/css">
   <![CDATA[
    .str1 {stroke:#2F318B;stroke-width:300.021}
    .str0 {stroke:#332C2B;stroke-width:8.10063}
    .fil1 {fill:none}
    .fil2 {fill:#2F318B}
    .fil0 {fill:#2F318B;fill-rule:nonzero}
   ]]>
  </style>
   <clipPath id="id0" style="clip-rule:nonzero">
    <path d="M0 6131l158 0 0 423 200 -423 158 0 -188 368 191 635 -165 0 -133 -447 -63 128 0 319 -158 0 0 -1003z"/>
   </clipPath>
   <clipPath id="id1" style="clip-rule:nonzero">
    <path d="M594 6131l233 0c82,0 141,18 178,56 37,38 56,96 56,174l0 62c0,104 -34,170 -103,198l0 3c38,11 65,35 81,70 16,36 24,83 24,142l0 176c0,29 1,52 2,70 2,18 7,35 15,52l-161 0c-6,-16 -9,-31 -11,-46 -2,-14 -3,-40 -3,-77l0 -183c0,-46 -8,-78 -22,-97 -15,-18 -41,-27 -77,-27l-55 0 0 430 -157 0 0 -1003zm215 430c31,0 55,-8 71,-25 16,-16 23,-43 23,-81l0 -78c0,-36 -6,-62 -19,-79 -13,-16 -33,-24 -61,-24l-72 0 0 287 58 0z"/>
   </clipPath>
   <clipPath id="id2" style="clip-rule:nonzero">
    <path d="M1172 6131l430 0 0 143 -273 0 0 265 217 0 0 144 -217 0 0 308 273 0 0 143 -430 0 0 -1003z"/>
   </clipPath>
   <clipPath id="id3" style="clip-rule:nonzero">
    <path d="M1692 6131l241 0c78,0 137,21 176,63 40,42 59,103 59,185l0 507c0,82 -19,143 -59,185 -39,42 -98,63 -176,63l-241 0 0 -1003zm238 860c26,0 46,-8 60,-23 13,-15 20,-40 20,-75l0 -521c0,-35 -7,-60 -20,-75 -14,-15 -34,-23 -60,-23l-80 0 0 717 80 0z"/>
   </clipPath>
   <clipPath id="id4" style="clip-rule:nonzero">
    <path d="M2274 6131l158 0 0 1003 -158 0 0 -1003z"/>
   </clipPath>
   <clipPath id="id5" style="clip-rule:nonzero">
    <path d="M2673 6274l-165 0 0 -143 488 0 0 143 -165 0 0 860 -158 0 0 -860z"/>
   </clipPath>
   <clipPath id="id6" style="clip-rule:nonzero">
    <path d="M3301 6131l232 0c79,0 137,21 177,63 39,42 58,103 58,185l0 99c0,81 -19,143 -58,185 -40,42 -98,63 -177,63l-74 0 0 408 -158 0 0 -1003zm232 451c26,0 45,-7 58,-21 13,-15 20,-39 20,-73l0 -119c0,-35 -7,-59 -20,-73 -13,-15 -32,-22 -58,-22l-74 0 0 308 74 0z"/>
   </clipPath>
   <clipPath id="id7" style="clip-rule:nonzero">
    <path d="M3854 6131l431 0 0 143 -273 0 0 265 217 0 0 144 -217 0 0 308 273 0 0 143 -431 0 0 -1003z"/>
   </clipPath>
   <clipPath id="id8" style="clip-rule:nonzero">
    <path d="M4375 6131l225 0 101 718 2 0 101 -718 225 0 0 1003 -149 0 0 -760 -3 0 -115 760 -132 0 -114 -760 -3 0 0 760 -138 0 0 -1003z"/>
   </clipPath>
   <clipPath id="id9" style="clip-rule:nonzero">
    <path d="M5146 6131l158 0 0 1003 -158 0 0 -1003z"/>
   </clipPath>
   <clipPath id="id10" style="clip-rule:nonzero">
    <path d="M5422 6131l158 0 0 860 259 0 0 143 -417 0 0 -1003z"/>
   </clipPath>
   <clipPath id="id11" style="clip-rule:nonzero">
    <path d="M5915 6131l158 0 0 1003 -158 0 0 -1003z"/>
   </clipPath>
   <clipPath id="id12" style="clip-rule:nonzero">
    <path d="M6190 6131l158 0 0 423 201 -423 158 0 -188 368 190 635 -164 0 -134 -447 -63 128 0 319 -158 0 0 -1003z"/>
   </clipPath>
   <clipPath id="id13" style="clip-rule:nonzero">
    <path d="M6906 6131l214 0 163 1003 -158 0 -28 -199 0 3 -180 0 -28 196 -147 0 164 -1003zm172 671l-70 -496 -3 0 -69 496 142 0z"/>
   </clipPath>
   <clipPath id="id14" style="clip-rule:nonzero">
    <path d="M7359 6131l198 0 153 600 3 0 0 -600 141 0 0 1003 -162 0 -190 -732 -2 0 0 732 -141 0 0 -1003z"/>
   </clipPath>
   <clipPath id="id15" style="clip-rule:nonzero">
    <path d="M8201 6131l234 0c81,0 140,18 177,56 38,38 56,96 56,174l0 62c0,104 -34,170 -103,198l0 3c38,11 65,35 81,70 16,36 24,83 24,142l0 176c0,29 1,52 3,70 1,18 6,35 14,52l-161 0c-5,-16 -9,-31 -11,-46 -2,-14 -3,-40 -3,-77l0 -183c0,-46 -7,-78 -22,-97 -15,-18 -41,-27 -77,-27l-54 0 0 430 -158 0 0 -1003zm215 430c31,0 55,-8 71,-25 16,-16 24,-43 24,-81l0 -78c0,-36 -7,-62 -20,-79 -13,-16 -33,-24 -61,-24l-71 0 0 287 57 0z"/>
   </clipPath>
   <clipPath id="id16" style="clip-rule:nonzero">
    <path d="M9008 7149c-76,0 -135,-22 -175,-66 -40,-43 -60,-105 -60,-187l0 -765 158 0 0 777c0,34 7,59 20,74 14,16 34,23 60,23 26,0 46,-7 60,-23 13,-15 20,-40 20,-74l0 -777 152 0 0 765c0,82 -20,144 -60,187 -40,44 -98,66 -175,66z"/>
   </clipPath>
   <clipPath id="id17" style="clip-rule:nonzero">
    <path d="M9355 6131l225 0 101 718 3 0 100 -718 225 0 0 1003 -149 0 0 -760 -3 0 -115 760 -132 0 -114 -760 -3 0 0 760 -138 0 0 -1003z"/>
   </clipPath>
   <clipPath id="id18" style="clip-rule:nonzero">
    <path d="M10249 6131l213 0 164 1003 -158 0 -29 -199 0 3 -179 0 -29 196 -146 0 164 -1003zm172 671l-71 -496 -3 0 -68 496 142 0z"/>
   </clipPath>
   <clipPath id="id19" style="clip-rule:nonzero">
    <path d="M10702 6131l157 0 0 408 170 0 0 -408 157 0 0 1003 -157 0 0 -451 -170 0 0 451 -157 0 0 -1003z"/>
   </clipPath>
   <clipPath id="id20">
    <path d="M0 6131l158 0 0 423 200 -423 158 0 -188 368 191 635 -165 0 -133 -447 -63 128 0 319 -158 0 0 -1003zm594 0l233 0c82,0 141,18 178,56 37,38 56,96 56,174l0 62c0,104 -34,170 -103,198l0 3c38,11 65,35 81,70 16,36 24,83 24,142l0 176c0,29 1,52 2,70 2,18 7,35 15,52l-161 0c-6,-16 -9,-31 -11,-46 -2,-14 -3,-40 -3,-77l0 -183c0,-46 -8,-78 -22,-97 -15,-18 -41,-27 -77,-27l-55 0 0 430 -157 0 0 -1003zm215 430c31,0 55,-8 71,-25 16,-16 23,-43 23,-81l0 -78c0,-36 -6,-62 -19,-79 -13,-16 -33,-24 -61,-24l-72 0 0 287 58 0zm363 -430l430 0 0 143 -273 0 0 265 217 0 0 144 -217 0 0 308 273 0 0 143 -430 0 0 -1003zm520 0l241 0c78,0 137,21 176,63 40,42 59,103 59,185l0 507c0,82 -19,143 -59,185 -39,42 -98,63 -176,63l-241 0 0 -1003zm238 860c26,0 46,-8 60,-23 13,-15 20,-40 20,-75l0 -521c0,-35 -7,-60 -20,-75 -14,-15 -34,-23 -60,-23l-80 0 0 717 80 0zm344 -860l158 0 0 1003 -158 0 0 -1003zm399 143l-165 0 0 -143 488 0 0 143 -165 0 0 860 -158 0 0 -860zm628 -143l232 0c79,0 137,21 177,63 39,42 58,103 58,185l0 99c0,81 -19,143 -58,185 -40,42 -98,63 -177,63l-74 0 0 408 -158 0 0 -1003zm232 451c26,0 45,-7 58,-21 13,-15 20,-39 20,-73l0 -119c0,-35 -7,-59 -20,-73 -13,-15 -32,-22 -58,-22l-74 0 0 308 74 0zm321 -451l431 0 0 143 -273 0 0 265 217 0 0 144 -217 0 0 308 273 0 0 143 -431 0 0 -1003zm521 0l225 0 101 718 2 0 101 -718 225 0 0 1003 -149 0 0 -760 -3 0 -115 760 -132 0 -114 -760 -3 0 0 760 -138 0 0 -1003zm771 0l158 0 0 1003 -158 0 0 -1003zm276 0l158 0 0 860 259 0 0 143 -417 0 0 -1003zm493 0l158 0 0 1003 -158 0 0 -1003zm275 0l158 0 0 423 201 -423 158 0 -188 368 190 635 -164 0 -134 -447 -63 128 0 319 -158 0 0 -1003zm716 0l214 0 163 1003 -158 0 -28 -199 0 3 -180 0 -28 196 -147 0 164 -1003zm172 671l-70 -496 -3 0 -69 496 142 0zm281 -671l198 0 153 600 3 0 0 -600 141 0 0 1003 -162 0 -190 -732 -2 0 0 732 -141 0 0 -1003zm842 0l234 0c81,0 140,18 177,56 38,38 56,96 56,174l0 62c0,104 -34,170 -103,198l0 3c38,11 65,35 81,70 16,36 24,83 24,142l0 176c0,29 1,52 3,70 1,18 6,35 14,52l-161 0c-5,-16 -9,-31 -11,-46 -2,-14 -3,-40 -3,-77l0 -183c0,-46 -7,-78 -22,-97 -15,-18 -41,-27 -77,-27l-54 0 0 430 -158 0 0 -1003zm215 430c31,0 55,-8 71,-25 16,-16 24,-43 24,-81l0 -78c0,-36 -7,-62 -20,-79 -13,-16 -33,-24 -61,-24l-71 0 0 287 57 0zm592 588c-76,0 -135,-22 -175,-66 -40,-43 -60,-105 -60,-187l0 -765 158 0 0 777c0,34 7,59 20,74 14,16 34,23 60,23 26,0 46,-7 60,-23 13,-15 20,-40 20,-74l0 -777 152 0 0 765c0,82 -20,144 -60,187 -40,44 -98,66 -175,66zm347 -1018l225 0 101 718 3 0 100 -718 225 0 0 1003 -149 0 0 -760 -3 0 -115 760 -132 0 -114 -760 -3 0 0 760 -138 0 0 -1003zm894 0l213 0 164 1003 -158 0 -29 -199 0 3 -179 0 -29 196 -146 0 164 -1003zm172 671l-71 -496 -3 0 -68 496 142 0zm281 -671l157 0 0 408 170 0 0 -408 157 0 0 1003 -157 0 0 -451 -170 0 0 451 -157 0 0 -1003z"/>
   </clipPath>
 </defs>
 <g id="Layer_x0020_1">
  <metadata id="CorelCorpID_0Corel-Layer"/>
  <path class="fil0" d="M0 6131l158 0 0 423 200 -423 158 0 -188 368 191 635 -165 0 -133 -447 -63 128 0 319 -158 0 0 -1003zm594 0l233 0c82,0 141,18 178,56 37,38 56,96 56,174l0 62c0,104 -34,170 -103,198l0 3c38,11 65,35 81,70 16,36 24,83 24,142l0 176c0,29 1,52 2,70 2,18 7,35 15,52l-161 0c-6,-16 -9,-31 -11,-46 -2,-14 -3,-40 -3,-77l0 -183c0,-46 -8,-78 -22,-97 -15,-18 -41,-27 -77,-27l-55 0 0 430 -157 0 0 -1003zm215 430c31,0 55,-8 71,-25 16,-16 23,-43 23,-81l0 -78c0,-36 -6,-62 -19,-79 -13,-16 -33,-24 -61,-24l-72 0 0 287 58 0zm363 -430l430 0 0 143 -273 0 0 265 217 0 0 144 -217 0 0 308 273 0 0 143 -430 0 0 -1003zm520 0l241 0c78,0 137,21 176,63 40,42 59,103 59,185l0 507c0,82 -19,143 -59,185 -39,42 -98,63 -176,63l-241 0 0 -1003zm238 860c26,0 46,-8 60,-23 13,-15 20,-40 20,-75l0 -521c0,-35 -7,-60 -20,-75 -14,-15 -34,-23 -60,-23l-80 0 0 717 80 0zm344 -860l158 0 0 1003 -158 0 0 -1003zm399 143l-165 0 0 -143 488 0 0 143 -165 0 0 860 -158 0 0 -860zm628 -143l232 0c79,0 137,21 177,63 39,42 58,103 58,185l0 99c0,81 -19,143 -58,185 -40,42 -98,63 -177,63l-74 0 0 408 -158 0 0 -1003zm232 451c26,0 45,-7 58,-21 13,-15 20,-39 20,-73l0 -119c0,-35 -7,-59 -20,-73 -13,-15 -32,-22 -58,-22l-74 0 0 308 74 0zm321 -451l431 0 0 143 -273 0 0 265 217 0 0 144 -217 0 0 308 273 0 0 143 -431 0 0 -1003zm521 0l225 0 101 718 2 0 101 -718 225 0 0 1003 -149 0 0 -760 -3 0 -115 760 -132 0 -114 -760 -3 0 0 760 -138 0 0 -1003zm771 0l158 0 0 1003 -158 0 0 -1003zm276 0l158 0 0 860 259 0 0 143 -417 0 0 -1003zm493 0l158 0 0 1003 -158 0 0 -1003zm275 0l158 0 0 423 201 -423 158 0 -188 368 190 635 -164 0 -134 -447 -63 128 0 319 -158 0 0 -1003zm716 0l214 0 163 1003 -158 0 -28 -199 0 3 -180 0 -28 196 -147 0 164 -1003zm172 671l-70 -496 -3 0 -69 496 142 0zm281 -671l198 0 153 600 3 0 0 -600 141 0 0 1003 -162 0 -190 -732 -2 0 0 732 -141 0 0 -1003zm842 0l234 0c81,0 140,18 177,56 38,38 56,96 56,174l0 62c0,104 -34,170 -103,198l0 3c38,11 65,35 81,70 16,36 24,83 24,142l0 176c0,29 1,52 3,70 1,18 6,35 14,52l-161 0c-5,-16 -9,-31 -11,-46 -2,-14 -3,-40 -3,-77l0 -183c0,-46 -7,-78 -22,-97 -15,-18 -41,-27 -77,-27l-54 0 0 430 -158 0 0 -1003zm215 430c31,0 55,-8 71,-25 16,-16 24,-43 24,-81l0 -78c0,-36 -7,-62 -20,-79 -13,-16 -33,-24 -61,-24l-71 0 0 287 57 0zm592 588c-76,0 -135,-22 -175,-66 -40,-43 -60,-105 -60,-187l0 -765 158 0 0 777c0,34 7,59 20,74 14,16 34,23 60,23 26,0 46,-7 60,-23 13,-15 20,-40 20,-74l0 -777 152 0 0 765c0,82 -20,144 -60,187 -40,44 -98,66 -175,66zm347 -1018l225 0 101 718 3 0 100 -718 225 0 0 1003 -149 0 0 -760 -3 0 -115 760 -132 0 -114 -760 -3 0 0 760 -138 0 0 -1003zm894 0l213 0 164 1003 -158 0 -29 -199 0 3 -179 0 -29 196 -146 0 164 -1003zm172 671l-71 -496 -3 0 -68 496 142 0zm281 -671l157 0 0 408 170 0 0 -408 157 0 0 1003 -157 0 0 -451 -170 0 0 451 -157 0 0 -1003z"/>
  <g style="clip-path:url(#id0)">
  </g>
  <g style="clip-path:url(#id1)">
  </g>
  <g style="clip-path:url(#id2)">
  </g>
  <g style="clip-path:url(#id3)">
  </g>
  <g style="clip-path:url(#id4)">
  </g>
  <g style="clip-path:url(#id5)">
  </g>
  <g style="clip-path:url(#id6)">
  </g>
  <g style="clip-path:url(#id7)">
  </g>
  <g style="clip-path:url(#id8)">
  </g>
  <g style="clip-path:url(#id9)">
  </g>
  <g style="clip-path:url(#id10)">
  </g>
  <g style="clip-path:url(#id11)">
  </g>
  <g style="clip-path:url(#id12)">
  </g>
  <g style="clip-path:url(#id13)">
  </g>
  <g style="clip-path:url(#id14)">
  </g>
  <g style="clip-path:url(#id15)">
  </g>
  <g style="clip-path:url(#id16)">
  </g>
  <g style="clip-path:url(#id17)">
  </g>
  <g style="clip-path:url(#id18)">
  </g>
  <g style="clip-path:url(#id19)">
  </g>
  <g style="clip-path:url(#id20)">
   <path id="1" class="fil1 str0" d="M0 6131l11186 1018m0 -1018l-11186 1018"/>
  </g>
  <g id="_301861688">
   <rect class="fil2" transform="matrix(1.21581E-014 -0.248506 0.459065 6.58156E-015 3047.49 372.787)" width="1500" height="11101"/>
   <polygon class="fil2" points="5593,264 5591,260 1232,3178 1482,3552 5593,800 9704,3552 9954,3178 5596,260 "/>
   <g>
    <path class="fil2" d="M4597 5225l0 0 0 -4 0 -4112 348 0 0 482c240,-267 588,-435 976,-435 724,0 1311,587 1311,1311 0,725 -587,1312 -1311,1312 -388,0 -736,-168 -976,-435l0 1009c231,-242 556,-393 916,-393 524,0 993,323 1181,812l-305 117c-135,-352 -452,-602 -876,-602 -424,0 -824,315 -916,736l0 756 -348 0 0 -554zm348 -3061l0 607c130,416 517,718 976,718 564,0 1021,-457 1021,-1022 0,-1166 -1654,-1406 -1997,-303z"/>
    <line class="fil1 str1" x1="5937" y1="1354" x2="5937" y2= "3594" />
    <line class="fil1 str1" x1="4774" y1="2432" x2="7232" y2= "2432" />
   </g>
  </g>
 </g>
</svg>
